HIERARCHY
ROOT Hips
{
	OFFSET 0.000000 0.000000 0.000000 
	CHANNELS 6 Xposition Yposition Zposition Yrotation Zrotation Xrotation 
	JOINT Lumbar
	{
		OFFSET 0.000000 0.000000 0.000000 
		CHANNELS 3 Zrotation Xrotation Yrotation
		JOINT Neck
		{
			OFFSET 0.000000 0.445665 0.000000 
			CHANNELS 3 Zrotation Xrotation Yrotation
			End Site
			{
				OFFSET 0.000000 0.227535 0.000000 
			}
		}
		JOINT RightShoulder
		{
			OFFSET 0.019635 0.377685 0.194865 
			CHANNELS 3 Zrotation Xrotation Yrotation
			JOINT RightElbow
			{
				OFFSET 0.000000 -0.243375 0.000000 
				CHANNELS 2 Zrotation Yrotation
				JOINT RightWrist
				{
					OFFSET 0.000000 -0.264825 0.000000 
					CHANNELS 2 Zrotation Xrotation
					End Site
					{
						OFFSET 0.006600 -0.176220 0.000990 
					}
				}
			}
		}
		JOINT LeftShoulder
		{
			OFFSET 0.019635 0.377685 -0.194865 
			CHANNELS 3 Zrotation Xrotation Yrotation
			JOINT LeftElbow
			{
				OFFSET 0.000000 -0.243375 0.000000 
				CHANNELS 2 Zrotation Yrotation
				JOINT LeftWrist
				{
					OFFSET 0.000000 -0.264825 0.000000 
					CHANNELS 2 Zrotation Xrotation
					End Site
					{
						OFFSET 0.006600 -0.176220 -0.000990 
					}
				}
			}
		}
	}
	JOINT RightHip
	{
		OFFSET 0.052140 -0.069960 0.075570 
		CHANNELS 3 Zrotation Xrotation Yrotation
		JOINT RightKnee
		{
			OFFSET 0.000000 -0.402270 0.000000 
			CHANNELS 1 Zrotation
			JOINT RightAnkle
			{
				OFFSET 0.000000 -0.404085 0.000000 
				CHANNELS 3 Zrotation Xrotation Yrotation
				End Site
				{
					OFFSET 0.204105 -0.089430 0.008415 
				}
			}
		}
	}
	JOINT LeftHip
	{
		OFFSET 0.052140 -0.069960 -0.075570 
		CHANNELS 3 Zrotation Xrotation Yrotation
		JOINT LeftKnee
		{
			OFFSET 0.000000 -0.402270 0.000000 
			CHANNELS 1 Zrotation
			JOINT LeftAnkle
			{
				OFFSET 0.000000 -0.404085 0.000000 
				CHANNELS 3 Zrotation Xrotation Yrotation
				End Site
				{
					OFFSET 0.204105 -0.089430 -0.008415 
				}
			}
		}
	}
}
MOTION
Frames: 25
Frame Time: 0.02
0.09125 0.10466 0.05456 165.60324 0 -15.86145 -10.5858 4.13924 0.91616 -40.18005 1.71646 6.69723 27.12115 -46.69365 -23.96976 86.03165 105.24626 -35.02604 -5.94214 35.79662 28.01073 26.33502 90.72841 -118.50359 -52.12283 6.93045 116.35557 -6.32511 -45.76066 -126.1325 8.49824 2.65088 10.57619 110.76151 15.54302 44.98745 -139.99381 16.42506 -8.75419 -10.49174
0.09046 0.10468 0.05351 165.60264 0 -15.48097 -10.57621 3.96417 0.75978 -40.12536 1.71023 6.66835 26.90265 -46.62408 -24.15832 86.45014 105.44475 -35.0826 -5.968 35.50135 27.86296 26.74229 91.01422 -118.40032 -52.15235 6.91245 116.09543 -6.43048 -45.88452 -126.21346 9.05962 2.47688 10.9117 110.57748 15.62206 45.14635 -140.0956 16.51779 -8.90215 -10.50533
0.08958 0.10457 0.05195 165.66687 0 -15.02639 -10.55665 3.70905 0.56607 -40.05259 1.71107 6.64055 26.63969 -46.47941 -24.35229 86.85886 105.63961 -35.14317 -5.99672 35.1762 27.70758 27.16202 91.31781 -118.30763 -52.18939 6.89467 115.82378 -6.5793 -46.04072 -126.33068 9.72216 2.24654 11.33126 110.43763 15.66815 45.30283 -140.22982 16.60491 -9.04745 -10.51654
0.08875 0.10452 0.05061 165.70205 0 -14.60524 -10.544 3.49282 0.39412 -39.98486 1.70403 6.607 26.39744 -46.36148 -24.53823 87.27127 105.8374 -35.20506 -6.02372 34.86353 27.55811 27.57484 91.61305 -118.20668 -52.21988 6.87657 115.56936 -6.69695 -46.17367 -126.43017 10.29486 2.05275 11.689 110.28422 15.7278 45.45682 -140.35059 16.69354 -9.19257 -10.52854
0.08787 0.10448 0.04929 165.73799 0 -14.1817 -10.5211 3.26313 0.20134 -39.92981 1.71651 6.59495 26.14997 -46.27303 -24.75049 87.68555 106.03221 -35.25299 -6.05263 34.5564 27.39885 27.99293 91.90823 -118.11854 -52.26353 6.85919 115.26364 -6.8643 -46.34212 -126.53606 11.04674 1.81277 12.1448 110.10189 15.79136 45.6279 -140.4667 16.78809 -9.34644 -10.54188
0.08708 0.10439 0.0478 165.78679 0 -13.74691 -10.51736 3.0439 0.04341 -39.84468 1.68999 6.53872 25.90478 -46.10656 -24.90741 88.09391 106.23174 -35.33081 -6.07828 34.23037 27.25759 28.40263 92.20828 -118.0074 -52.28186 6.84048 115.06128 -6.93877 -46.44518 -126.63663 11.45526 1.65486 12.41875 109.99088 15.83988 45.7622 -140.59977 16.86842 -9.47978 -10.55193
0.08657 0.1042 0.046 165.85529 0 -13.29866 -10.56781 2.86933 -0.01023 -39.6768 1.55509 6.359 25.66728 -45.73558 -24.91917 88.49074 106.44189 -35.49546 -6.093 33.85849 27.17229 28.79016 92.51674 -117.82415 -52.22545 6.81749 115.15953 -6.73486 -46.35187 -126.71573 10.84681 1.74679 12.14764 110.06511 15.85349 45.79418 -140.77375 16.91132 -9.56162 -10.55285
0.08616 0.10397 0.04406 165.93415 0 -12.84235 -10.63812 2.70929 -0.02711 -39.48016 1.38047 6.13502 25.43572 -45.28994 -24.87307 88.88164 106.65739 -35.68947 -6.10454 33.46877 27.10448 29.16783 92.82979 -117.61876 -52.14413 6.79327 115.36011 -6.43769 -46.19305 -126.78766 9.8976 1.92164 11.69464 110.20962 15.85388 45.78933 -140.96322 16.94035 -9.62009 -10.55108
0.08571 0.10376 0.04218 166.00785 0 -12.39039 -10.70012 2.5452 -0.06017 -39.29936 1.22347 5.93226 25.20794 -44.88383 -24.84731 89.27395 106.87191 -35.86644 -6.11829 33.08758 27.0258 29.54773 93.14136 -117.42748 -52.07574 6.76996 115.50601 -6.19024 -46.06946 -126.86143 9.13385 2.0524 11.33968 110.32319 15.86122 45.80177 -141.14422 16.97447 -9.68802 -10.55039
0.08522 0.10356 0.04027 166.08572 0 -11.93233 -10.75873 2.36673 -0.09725 -39.10596 1.0688 5.72509 24.9511 -44.45252 -24.84702 89.67162 107.07923 -36.05812 -6.12887 32.70314 26.95937 29.93867 93.45092 -117.21905 -51.99955 6.74517 115.6861 -5.9134 -45.92414 -126.94264 8.24525 2.20809 10.92317 110.43549 15.86241 45.81128 -141.33248 17.01122 -9.76746 -10.54844
0.08484 0.10332 0.0384 166.15657 0 -11.48671 -10.82925 2.22365 -0.11611 -38.93256 0.89944 5.51627 24.75695 -44.05561 -24.77975 90.05649 107.3041 -36.22737 -6.14531 32.32217 26.87144 30.30273 93.76559 -117.04147 -51.9352 6.7232 115.8193 -5.67503 -45.80789 -127.00597 7.53338 2.33249 10.59002 110.56475 15.87493 45.81885 -141.50877 17.0422 -9.80904 -10.55075
0.08472 0.10295 0.03663 166.20455 0 -11.0722 -10.92792 2.16727 -0.09893 -38.81841 0.70175 5.31647 24.73357 -43.78344 -24.54212 90.41022 107.56577 -36.31647 -6.17821 31.95045 26.72201 30.60622 94.09277 -116.9498 -51.89629 6.70899 115.79926 -5.5658 -45.78944 -127.02327 7.40193 2.34852 10.53588 110.73949 15.91136 45.82381 -141.64874 17.03465 -9.8263 -10.54544
0.0847 0.10254 0.03491 166.24494 0 -10.67189 -11.03795 2.14783 -0.06351 -38.72596 0.49015 5.11605 24.77354 -43.54653 -24.23874 90.75065 107.84706 -36.38405 -6.21725 31.58385 26.54996 30.88043 94.42497 -116.89065 -51.8729 6.69771 115.72841 -5.49829 -45.80207 -127.02237 7.45792 2.33077 10.57072 110.92604 15.96146 45.82905 -141.77582 17.02613 -9.79441 -10.54774
0.08464 0.10216 0.03318 166.28911 0 -10.26885 -11.14271 2.11673 -0.03279 -38.62572 0.28326 4.91404 24.78521 -43.28656 -23.9654 91.09562 108.12594 -36.46864 -6.25376 31.21816 26.38692 31.1612 94.75504 -116.8198 -51.85078 6.68531 115.67994 -5.41139 -45.79929 -127.02851 7.4216 2.3299 10.5615 111.09613 16.01286 45.8385 -141.90836 17.03578 -9.73353 -10.5604
0.08459 0.10173 0.03141 166.33233 0 -9.84962 -11.24848 2.06432 -0.01596 -38.51599 0.08181 4.71821 24.79467 -43.05438 -23.69028 91.44739 108.37676 -36.52357 -6.28889 30.83819 26.22992 31.47191 95.08448 -116.73568 -51.79153 6.67202 115.6377 -5.32301 -45.79963 -127.03946 7.40342 2.32556 10.56113 111.31411 16.03342 45.82916 -142.04335 16.97222 -9.88008 -10.51677
0.08452 0.1014 0.02972 166.37554 0 -9.46777 -11.35473 2.06504 0.03366 -38.43121 -0.13379 4.51017 24.82411 -42.77273 -23.40288 91.78109 108.69159 -36.63499 -6.32857 30.48936 26.05466 31.71119 95.41659 -116.68658 -51.81502 6.66122 115.56951 -5.24895 -45.80174 -127.03636 7.39657 2.31921 10.566 111.43598 16.11993 45.85853 -142.1697 17.05844 -9.59384 -10.58951
0.08437 0.10136 0.02825 166.42067 0 -9.18441 -11.4582 2.20222 0.16918 -38.41336 -0.3847 4.26695 24.8902 -42.35448 -23.10718 92.07496 109.17023 -36.90547 -6.3779 30.2263 25.83489 31.77893 95.75214 -116.73275 -52.05055 6.65745 115.43815 -5.20371 -45.80118 -126.99725 7.37626 2.31619 10.56329 111.27393 16.40018 46.00316 -142.27754 17.58145 -8.03303 -11.00522
0.08419 0.10141 0.02688 166.46594 0 -8.93855 -11.56187 2.39175 0.33687 -38.41949 -0.64919 4.0121 24.97492 -41.88406 -22.79959 92.34959 109.71416 -37.23363 -6.4319 29.99461 25.59729 31.77208 96.09032 -116.81253 -52.37069 6.65602 115.28269 -5.17201 -45.80166 -126.94498 7.36305 2.31167 10.5641 111.0172 16.74366 46.18539 -142.37663 18.25104 -6.05551 -11.53346
0.08403 0.10142 0.02547 166.51106 0 -8.67629 -11.66625 2.55803 0.4898 -38.41248 -0.90761 3.76368 25.05283 -41.43218 -22.49191 92.62893 110.23346 -37.53691 -6.48466 29.74754 25.36755 31.78765 96.42947 -116.87201 -52.66127 6.65284 115.14032 -5.13493 -45.80194 -126.89981 7.34677 2.30719 10.56396 110.8138 17.04836 46.34503 -142.47826 18.83851 -4.32898 -11.99466
0.08386 0.10144 0.02401 166.55641 0 -8.41146 -11.76776 2.72334 0.64413 -38.41528 -1.16641 3.50984 25.12524 -41.00309 -22.20642 92.92595 110.73195 -37.83457 -6.5338 29.50401 25.13826 31.8519 96.76111 -116.95143 -52.91733 6.65229 114.98713 -5.096 -45.80206 -126.84919 7.33349 2.3048 10.56265 110.56776 17.39567 46.52777 -142.5856 19.49132 -2.34085 -12.52293
0.0837 0.10146 0.02267 166.60126 0 -8.16115 -11.875 2.90263 0.80275 -38.40357 -1.42707 3.2652 25.21359 -40.51397 -21.87107 93.18038 111.28932 -38.15695 -6.59164 29.2622 24.90385 31.79585 97.10712 -116.99987 -53.26203 6.64724 114.85152 -5.06362 -45.80239 -126.80716 7.31659 2.29746 10.56524 110.38738 17.66939 46.67146 -142.67903 20.04294 -0.79899 -12.93851
0.08362 0.10146 0.02163 166.64607 0 -7.93818 -11.99929 3.10753 0.96673 -38.34148 -1.69267 3.04348 25.33331 -39.8695 -21.41567 93.33338 111.98983 -38.54173 -6.6711 29.00323 24.66172 31.43914 97.50731 -116.92809 -53.85814 6.62529 114.76952 -5.04603 -45.80284 -126.79129 7.25675 2.28299 10.56155 110.41599 17.72109 46.69672 -142.73691 20.2775 -0.59697 -13.01142
0.08356 0.10145 0.02071 166.69023 0 -7.72923 -12.12905 3.32459 1.13354 -38.26462 -1.95888 2.83246 25.46948 -39.16689 -20.90813 93.44203 112.7473 -38.94794 -6.75928 28.7477 24.41479 30.96152 97.91865 -116.82829 -54.53542 6.59939 114.70646 -5.03449 -45.80336 -126.78479 7.1965 2.2629 10.56351 110.5133 17.69676 46.68151 -142.78099 20.40484 -0.85934 -12.96728
0.08348 0.10144 0.01975 166.73375 0 -7.51602 -12.25542 3.536 1.29808 -38.19747 -2.22285 2.61998 25.60331 -38.49202 -20.41503 93.56363 113.48158 -39.33909 -6.84439 28.49966 24.16877 30.53076 98.31543 -116.75909 -55.15745 6.5779 114.63553 -5.01985 -45.80383 -126.77459 7.15782 2.24112 10.57406 110.57583 17.70977 46.68594 -142.83102 20.58324 -0.90357 -12.9799
0.08341 0.10144 0.01874 166.78092 0 -7.29483 -12.38561 3.74964 1.468 -38.11887 -2.49612 2.39254 25.71677 -37.80895 -19.96029 93.71527 114.20916 -39.75484 -6.92628 28.21379 23.92737 30.13179 98.75397 -116.61754 -55.85971 6.54568 114.56058 -5.00672 -45.80441 -126.76148 7.03514 2.23595 10.54082 110.64904 17.71461 46.68702 -142.88224 20.75957 -0.95628 -12.98333
